<svg width="16" height="16" viewBox="0 0 24 24" fill="none" xmlns="http://www.w3.org/2000/svg">
<path d="M12.04 2C6.55 2 2.17 6.38 2.17 11.87C2.17 13.97 2.84 15.93 4.02 17.52L2 22L6.62 20.02C8.17 20.96 10.04 21.5 12.04 21.5C17.53 21.5 21.91 17.12 21.91 11.63C21.91 6.14 17.53 2 12.04 2ZM12.04 19.42C10.39 19.42 8.84 18.88 7.58 18L5.87 18.76L6.58 17.1C5.59 15.83 5.04 14.26 5.04 12.56C5.04 8.39 8.52 5 12.68 5C16.85 5 20.33 8.39 20.33 12.56C20.33 16.73 16.85 19.42 12.68 19.42H12.04ZM14.66 13.55C14.5 13.47 13.32 12.88 13.19 12.84C13.05 12.79 12.94 12.77 12.85 12.91C12.75 13.04 12.38 13.47 12.29 13.56C12.19 13.66 12.1 13.67 11.94 13.59C10.93 13.11 10.04 12.48 9.32 11.67C9.19 11.52 9.34 11.44 9.44 11.33C9.53 11.23 9.64 11.09 9.73 10.99C9.78 10.93 9.81 10.88 9.84 10.83C9.92 10.71 9.9 10.62 9.84 10.51C9.77 10.4 9.23 9.05 9.06 8.67C8.88 8.29 8.7 8.35 8.56 8.35C8.44 8.35 8.32 8.35 8.2 8.35C8.08 8.35 7.9 8.39 7.77 8.52C7.64 8.66 7.22 9.06 7.22 9.93C7.22 10.8 7.89 11.64 7.99 11.77C8.09 11.91 9.44 13.82 11.63 14.94C13.82 16.06 14.32 15.77 14.66 15.69C15 15.61 16.01 14.97 16.15 14.48C16.28 13.99 16.28 13.62 16.22 13.55C16.17 13.48 14.82 13.62 14.66 13.55Z" fill="#111"/>
</svg>

